<svg xmlns="http://www.w3.org/2000/svg" viewBox="0 0 512 512">
  <rect width="512" height="512" rx="96" fill="#059669"/>
  <rect x="128" y="96" width="256" height="320" rx="20" fill="white" opacity="0.15"/>
  <rect x="148" y="116" width="216" height="280" rx="14" fill="white"/>
  <rect x="172" y="152" width="80" height="10" rx="5" fill="#d1fae5"/>
  <rect x="268" y="152" width="76" height="10" rx="5" fill="#d1fae5"/>
  <rect x="172" y="200" width="172" height="8" rx="4" fill="#a7f3d0"/>
  <rect x="172" y="220" width="140" height="8" rx="4" fill="#a7f3d0"/>
  <!-- Check 1 -->
  <circle cx="192" cy="272" r="16" fill="#059669"/>
  <path d="M183 272 l7 7 l13-13" stroke="white" stroke-width="2.5" stroke-linecap="round" stroke-linejoin="round" fill="none"/>
  <rect x="216" y="268" width="100" height="8" rx="4" fill="#e2e8f0"/>
  <!-- Check 2 -->
  <circle cx="192" cy="312" r="16" fill="#059669"/>
  <path d="M183 312 l7 7 l13-13" stroke="white" stroke-width="2.5" stroke-linecap="round" stroke-linejoin="round" fill="none"/>
  <rect x="216" y="308" width="80" height="8" rx="4" fill="#e2e8f0"/>
  <!-- Check 3 - warning -->
  <circle cx="192" cy="352" r="16" fill="#f59e0b"/>
  <path d="M192 344 v10 M192 357 v2" stroke="white" stroke-width="2.5" stroke-linecap="round" fill="none"/>
  <rect x="216" y="348" width="120" height="8" rx="4" fill="#fde68a"/>
</svg>
